Coordinates	
version=1	
nRows=375	
nColumns=2	
inDegrees=yes	
	
"Units are S.I. units (second, meters, Newtons, ...)"	
Angles are in degrees.	
	
endheader	
time	transX
25	17.65038792
25.02	17.70127741
25.04	17.75176041
25.06	17.80183847
25.08	17.8515131
25.1	17.90078587
25.12	17.95164076
25.14	18.00211015
25.16	18.0521956
25.18	18.10189866
25.2	18.15122066
25.22	18.1893424
25.24	18.22701359
25.26	18.26423555
25.28	18.30100958
25.3	18.33733796
25.32	18.36393276
25.34	18.39002467
25.36	18.41561602
25.38	18.44070911
25.4	18.46530709
25.42	18.49275216
25.44	18.51973075
25.46	18.54624601
25.48	18.57230107
25.5	18.59789872
25.52	18.62168912
25.54	18.64501859
25.56	18.66788985
25.58	18.69030561
25.6	18.71226866
25.62	18.7199928
25.64	18.72717789
25.66	18.73382668
25.68	18.73994193
25.7	18.74552762
25.72	18.73528178
25.74	18.72441246
25.76	18.71292366
25.78	18.70081938
25.8	18.68810498
25.82	18.67031262
25.84	18.65189117
25.86	18.632846
25.88	18.61318244
25.9	18.5929062
25.92	18.57609191
25.94	18.55870341
25.96	18.54074632
25.98	18.52222622
26	18.50314826
26.02	18.47726658
26.04	18.45079552
26.06	18.42374011
26.08	18.39610533
26.1	18.3678967
26.12	18.32644159
26.14	18.28433914
26.16	18.24159481
26.18	18.19821402
26.2	18.15420331
26.22	18.12570373
26.24	18.09669494
26.26	18.06718345
26.28	18.03717573
26.3	18.0066767
26.32	17.97640545
26.34	17.94565719
26.36	17.91443661
26.38	17.88274839
26.4	17.85059712
26.42	17.8179263
26.44	17.78480109
26.46	17.75122595
26.48	17.71720536
26.5	17.68274375
26.52	17.59634009
26.54	17.50916084
26.56	17.42121033
26.58	17.33249291
26.6	17.24301758
26.62	17.13319853
26.64	17.02250961
26.66	16.91096004
26.68	16.798559
26.7	16.68531739
26.72	16.65488466
26.74	16.62419081
26.76	16.59324667
26.78	16.56206295
26.8	16.53064265
26.82	16.49513223
26.84	16.45936414
26.86	16.42334063
26.88	16.38706396
26.9	16.35053673
26.92	16.25959229
26.94	16.16804138
26.96	16.07588661
26.98	15.98313057
27	15.88978079
27.02	15.82527446
27.04	15.76038638
27.06	15.69512438
27.08	15.62949621
27.1	15.56350691
27.12	15.52391173
27.14	15.48414322
27.16	15.44420609
27.18	15.40410498
27.2	15.36384207
27.22	15.31093309
27.24	15.25778298
27.26	15.20439368
27.28	15.15076714
27.3	15.0969064
27.32	15.04377895
27.34	14.99043005
27.36	14.93686282
27.38	14.88308038
27.4	14.82908575
27.42	14.75848849
27.44	14.68757571
27.46	14.61635037
27.48	14.54481542
27.5	14.47297528
27.52	14.41671461
27.54	14.36026367
27.56	14.30362695
27.58	14.24680892
27.6	14.18981254
27.62	14.12422335
27.64	14.05840537
27.66	13.99236139
27.68	13.92609421
27.7	13.85960738
27.72	13.78675183
27.74	13.71364278
27.76	13.64028379
27.78	13.56667839
27.8	13.49283067
27.82	13.40787418
27.84	13.32261108
27.86	13.23704543
27.88	13.15118127
27.9	13.0650236
27.92	12.98115112
27.94	12.89701238
27.96	12.81261236
27.98	12.72795603
28	12.64304809
28.02	12.62623605
28.04	12.60963728
28.06	12.59325635
28.08	12.57709781
28.1	12.56115994
28.12	12.45831285
28.14	12.35510109
28.16	12.25152244
28.18	12.14757469
28.2	12.04326366
28.22	11.94191071
28.24	11.84022946
28.26	11.73822634
28.28	11.63590769
28.3	11.53327953
28.32	11.46747769
28.34	11.40162571
28.36	11.33572946
28.38	11.26979475
28.4	11.20382396
28.42	11.1441195
28.44	11.08442509
28.46	11.02474274
28.48	10.9650745
28.5	10.90542179
28.52	10.83658018
28.54	10.7676955
28.56	10.69876912
28.58	10.62980242
28.6	10.56079761
28.62	10.44597643
28.64	10.33081647
28.66	10.21531998
28.68	10.09948921
28.7	9.98333058
28.72	9.914021379
28.74	9.844712223
28.76	9.77540977
28.78	9.706120629
28.8	9.63684704
28.82	9.552691361
28.84	9.468455595
28.86	9.384141554
28.88	9.299751046
28.9	9.215287232
28.92	9.11807504
28.94	9.020711522
28.96	8.923199902
28.98	8.825543385
29	8.727746314
29.02	8.653310913
29.04	8.578900408
29.06	8.504519158
29.08	8.430171487
29.1	8.35585954
29.12	8.290541952
29.14	8.225323673
29.16	8.160206619
29.18	8.095192691
29.2	8.030282963
29.22	7.964617524
29.24	7.899052538
29.26	7.833588994
29.28	7.768227879
29.3	7.702970254
29.32	7.636019972
29.34	7.569163326
29.36	7.502401376
29.38	7.435735175
29.4	7.369165939
29.42	7.315693453
29.44	7.262407031
29.46	7.209307885
29.48	7.156397223
29.5	7.103675057
29.52	7.057952091
29.54	7.012462853
29.56	6.96720726
29.58	6.922185234
29.6	6.877396076
29.62	6.829488703
29.64	6.781790388
29.66	6.734300407
29.68	6.687018045
29.7	6.639942903
29.72	6.59566431
29.74	6.551609478
29.76	6.507778056
29.78	6.464169697
29.8	6.420783825
29.82	6.392410386
29.84	6.364356864
29.86	6.336622683
29.88	6.309207276
29.9	6.282108725
29.92	6.27224636
29.94	6.262809647
29.96	6.253796603
29.98	6.245205264
30	6.237032134
30.02	6.215281403
30.04	6.193848433
30.06	6.172729682
30.08	6.151921641
30.1	6.13142211
30.12	6.115365485
30.14	6.099640834
30.16	6.084246133
30.18	6.069179375
30.2	6.054438191
30.22	6.049484605
30.24	6.044914949
30.26	6.04072688
30.28	6.036918077
30.3	6.033485371
30.32	6.032773548
30.34	6.032447066
30.36	6.032502755
30.38	6.032937475
30.4	6.033747893
30.42	6.049303927
30.44	6.065324864
30.46	6.081807436
30.48	6.0987484
30.5	6.116143225
30.52	6.100379199
30.54	6.084835797
30.56	6.069508479
30.58	6.054392741
30.6	6.039487195
30.62	6.047983902
30.64	6.056843208
30.66	6.066064028
30.68	6.075645285
30.7	6.085583784
30.72	6.102651004
30.74	6.120113945
30.76	6.137969295
30.78	6.156213765
30.8	6.174843472
30.82	6.171451538
30.84	6.168287704
30.86	6.165348121
30.88	6.16262897
30.9	6.160128509
30.92	6.149642144
30.94	6.139316696
30.96	6.129150645
30.98	6.119142478
31	6.109291443
31.02	6.10066291
31.04	6.092197251
31.06	6.083893788
31.08	6.075751846
31.1	6.067770652
31.12	6.059590747
31.14	6.051567645
31.16	6.043700574
31.18	6.035988762
31.2	6.028431472
31.22	6.022684194
31.24	6.01710102
31.26	6.011681222
31.28	6.006424074
31.3	6.001328702
31.32	5.987905334
31.34	5.974585382
31.36	5.961367964
31.38	5.948252205
31.4	5.935238007
31.42	5.905707211
31.44	5.876167121
31.46	5.8466177
31.48	5.817058906
31.5	5.787492215
31.52	5.748183523
31.54	5.708805195
31.56	5.669358793
31.58	5.629845861
31.6	5.590268816
31.62	5.552165282
31.64	5.514012785
31.66	5.475813745
31.68	5.437570562
31.7	5.399285466
31.72	5.360819559
31.74	5.322315168
31.76	5.283774441
31.78	5.245199507
31.8	5.206592483
31.82	5.167875342
31.84	5.129129748
31.86	5.090357751
31.88	5.051561383
31.9	5.012742661
31.92	4.973917778
31.94	4.935074606
31.96	4.896215101
31.98	4.857341197
32	4.818454806
32.02	4.779695026
32.04	4.740927438
32.06	4.702153896
32.08	4.663376233
32.1	4.624596249
32.12	4.585463637
32.14	4.546329901
32.16	4.507196786
32.18	4.468066017
32.2	4.428939333
32.22	4.390168333
32.24	4.35140718
32.26	4.312657562
32.28	4.273921152
32.3	4.235199567
32.32	4.197865789
32.34	4.160559165
32.36	4.12328126
32.38	4.086033625
32.4	4.048817668
32.42	3.995992864
32.44	3.943098205
32.46	3.890135045
32.48	3.837104719
